<svg width="19" height="18" viewBox="0 0 19 18" fill="none" xmlns="http://www.w3.org/2000/svg">
<path d="M9.31 3.5625C10.6375 3.5625 11.8263 4.02 12.7638 4.9125L15.3325 2.34375C13.7725 0.8925 11.7363 0 9.31 0C5.7925 0 2.75125 2.0175 1.27 4.9575L4.2625 7.27875C4.97125 5.145 6.9625 3.5625 9.31 3.5625Z" fill="#EA4335"/>
<path d="M17.9275 9.20625C17.9275 8.6175 17.8712 8.0475 17.785 7.5H9.31V10.8825H14.1625C13.945 11.9925 13.315 12.9375 12.37 13.575L15.2687 15.825C16.96 14.2575 17.9275 11.94 17.9275 9.20625Z" fill="#4285F4"/>
<path d="M4.25875 10.7213C4.07875 10.1775 3.97375 9.60002 3.97375 9.00002C3.97375 8.40002 4.075 7.82252 4.25875 7.27877L1.26625 4.95752C0.654998 6.17252 0.309998 7.54502 0.309998 9.00002C0.309998 10.455 0.654998 11.8275 1.27 13.0425L4.25875 10.7213Z" fill="#FBBC05"/>
<path d="M9.31 18C11.74 18 13.7838 17.2013 15.2688 15.8213L12.37 13.5713C11.5638 14.115 10.525 14.4338 9.31 14.4338C6.9625 14.4338 4.97125 12.8513 4.25875 10.7175L1.26625 13.0388C2.75125 15.9825 5.7925 18 9.31 18Z" fill="#34A853"/>
</svg>
